<svg xmlns="http://www.w3.org/2000/svg" xmlns:xlink="http://www.w3.org/1999/xlink" width="584" height="239" viewBox="0 0 584 239"><title>Artboard</title><defs><linearGradient id="b" x1="0%" x2="96.6014288%" y1="28.4549257%" y2="70.7647533%"><stop offset="0%" stop-color="#4AE595"/><stop offset="100%" stop-color="#4AE5C9"/></linearGradient><rect id="a" width="583" height="238" x="0" y="0" rx="39"/></defs><g fill="none" fill-rule="evenodd" transform="translate(.1214 .5817)"><mask id="c" fill="#fff"><use xlink:href="#a"/></mask><rect width="582" height="237" x=".5" y=".5" stroke="#979797" rx="39"/><path fill="url(#b)" stroke="#979797" d="M-8.62143736-57.0817087h1199v799h-1199z" mask="url(#c)"/><g fill="#512030" fill-rule="nonzero" mask="url(#c)" opacity=".34126936"><path d="M10.7790581 200.5490417c1.184621-.3184989 2.4033669.3834987 2.7218659 1.5681198.3184989 1.184621-.3834988 2.4033669-1.5681198 2.7218659-1.184621.3184989-2.403367-.3834987-2.7218659-1.5681198-.3193114-1.1838085.3834987-2.4025544 1.5681198-2.7218659ZM5.7301999 181.7787294c1.1846211-.3184989 2.403367.3834988 2.7218659 1.5681198.318499 1.184621-.3834987 2.403367-1.5681197 2.7218659-1.1846211.3184989-2.403367-.3834987-2.7218659-1.5681197-.318499-1.1846211.3834987-2.403367 1.5681197-2.721866ZM.6821543 163.0076047c1.184621-.318499 2.403367.3834987 2.7218659 1.5681197.3184989 1.1846211-.3834987 2.403367-1.5681198 2.7218659-1.184621.318499-2.4033669-.3834987-2.7218659-1.5681197-.3184989-1.1838086.3834988-2.4025545 1.5681198-2.7218659ZM26.6000052 196.2939934c1.184621-.3184989 2.403367.3834988 2.7218659 1.5681198.3184989 1.184621-.3834987 2.403367-1.5681198 2.7218659-1.184621.3184989-2.4033669-.3834987-2.7218659-1.5681198-.3184989-1.184621.3834987-2.4025544 1.5681198-2.7218659ZM21.5519596 177.5236812c1.184621-.318499 2.4033669.3834987 2.7218659 1.5681197.3184989 1.1846211-.3834988 2.403367-1.5681198 2.7218659-1.184621.318499-2.403367-.3834987-2.7218659-1.5681197-.3193114-1.1846211.3826862-2.403367 1.5681198-2.7218659ZM16.5031014 158.7525564c1.1846211-.3184989 2.403367.3834987 2.7218659 1.5681198.318499 1.184621-.3834987 2.4033669-1.5681197 2.7218659-1.1846211.3184989-2.403367-.3834988-2.7218659-1.5681198-.318499-1.1838085.3834987-2.4025545 1.5681197-2.7218659ZM11.4550558 139.9822441c1.184621-.3184989 2.403367.3834988 2.7218659 1.5681198.3184989 1.184621-.3834987 2.403367-1.5681198 2.7218659-1.184621.3184989-2.4033669-.3834987-2.7218659-1.5681198-.3193114-1.184621.3834988-2.4033669 1.5681198-2.7218659ZM6.4070102 121.211119c1.184621-.318499 2.4033669.383499 2.7218659 1.56812.3184989 1.184621-.3834987 2.403367-1.5681198 2.721866-1.184621.318499-2.403367-.383499-2.7218659-1.56812-.3193114-1.184621.3826862-2.403367 1.5681198-2.721866ZM1.358152 102.440807c1.1846211-.318499 2.403367.383499 2.7218659 1.56812.318499 1.184621-.3834987 2.403367-1.5681197 2.721866-1.1846211.318499-2.403367-.383499-2.7218659-1.56812-.318499-1.184621.3834987-2.403367 1.5681197-2.721866ZM42.4209523 192.0397577c1.1846211-.318499 2.403367.3834987 2.7218659 1.5681197.3184989 1.1846211-.3834987 2.403367-1.5681197 2.7218659-1.1846211.318499-2.403367-.3834987-2.7218659-1.5681197-.318499-1.1846211.3834987-2.403367 1.5681197-2.7218659ZM37.3729067 173.2686329c1.184621-.3184989 2.4033669.3834987 2.7218659 1.5681197.3184989 1.1846211-.3834987 2.403367-1.5681198 2.721866-1.184621.3184989-2.4033669-.3834988-2.7218659-1.5681198-.3193114-1.184621.3826862-2.403367 1.5681198-2.7218659ZM32.3240486 154.4983206c1.184621-.3184989 2.4033669.3834987 2.7218659 1.5681198.3184989 1.184621-.3834988 2.4033669-1.5681198 2.7218659-1.184621.3184989-2.403367-.3834987-2.7218659-1.5681198-.3184989-1.184621.3834987-2.4033669 1.5681198-2.7218659ZM27.2760029 135.7271959c1.1846211-.318499 2.403367.3834987 2.7218659 1.5681197.318499 1.1846211-.3834987 2.403367-1.5681197 2.7218659-1.1846211.318499-2.403367-.3834987-2.7218659-1.5681197-.318499-1.1846211.3834987-2.403367 1.5681197-2.7218659ZM22.2279573 116.956071c1.184621-.318499 2.403367.383499 2.7218659 1.56812.3184989 1.184621-.3834987 2.403367-1.5681198 2.721866-1.184621.318499-2.4033669-.383499-2.7218659-1.56812-.3193114-1.183809.3834988-2.402554 1.5681198-2.721866ZM17.1790992 98.185759c1.184621-.318499 2.4033669.383499 2.7218659 1.56812.3184989 1.184621-.3834987 2.403367-1.5681198 2.721865-1.184621.318499-2.403367-.383498-2.7218659-1.568119-.3184989-1.184621.3834987-2.403367 1.5681198-2.721866ZM12.1310535 79.414634c1.1846211-.318499 2.403367.383499 2.7218659 1.56812.318499 1.184621-.3834987 2.403367-1.5681197 2.721866-1.1846211.318499-2.403367-.383499-2.7218659-1.56812-.318499-1.184621.3834987-2.403367 1.5681197-2.721866ZM7.0830079 60.644322c1.184621-.318499 2.403367.383498 2.7218659 1.56812.3184989 1.184621-.3834987 2.403367-1.5681197 2.721865-1.1846211.318499-2.403367-.383498-2.721866-1.568119-.3184989-1.184621.3834988-2.403367 1.5681198-2.721866ZM2.0341498 41.873197c1.184621-.318499 2.403367.383499 2.7218659 1.56812.3184989 1.184621-.3834987 2.403367-1.5681198 2.721866-1.184621.318499-2.4033669-.383499-2.7218659-1.56812-.3184989-1.184621.3834987-2.403367 1.5681198-2.721866ZM58.24189944 187.7847094c1.18462104-.318499 2.40336696.3834987 2.7218659 1.5681197.31849894 1.1846211-.38349872 2.403367-1.56811976 2.7218659-1.18462104.318499-2.40336697-.3834987-2.7218659-1.5681197-.31849894-1.1846211.38349872-2.403367 1.56811976-2.7218659ZM53.19385381 169.0135846c1.18462104-.3184989 2.40336696.3834987 2.7218659 1.5681198.31849894 1.184621-.38349872 2.4033669-1.56811976 2.7218659-1.18462104.3184989-2.40336697-.3834987-2.7218659-1.5681198-.31931144-1.184621.38349872-2.403367 1.56811976-2.7218659ZM48.1458082 150.2432723c1.184621-.3184989 2.4033669.3834988 2.7218659 1.5681198.31849892 1.184621-.3834987 2.403367-1.5681198 2.7218659-1.184621.3184989-2.4033669-.3834987-2.7218659-1.5681198-.3193114-1.184621.3826862-2.4033669 1.5681198-2.7218659ZM43.0969501 131.472148c1.184621-.318499 2.4033669.383498 2.7218659 1.568119.3184989 1.184621-.3834988 2.4033673-1.5681198 2.7218662-1.184621.318499-2.403367-.3834987-2.7218659-1.5681202-.3184989-1.184621.3834987-2.403366 1.5681198-2.721865ZM38.0489044 112.701835c1.1846211-.318499 2.403367.383499 2.7218659 1.56812.318499 1.184621-.3834987 2.403367-1.5681197 2.721866-1.1846211.318499-2.403367-.383499-2.7218659-1.56812-.3193115-1.184621.3834987-2.403367 1.5681197-2.721866ZM33.0008588 93.930711c1.184621-.318499 2.403367.383498 2.7218659 1.568119.3184989 1.184621-.3834987 2.403367-1.5681198 2.721866-1.184621.318499-2.4033669-.383499-2.7218659-1.56812-.3193114-1.184621.3826863-2.403367 1.5681198-2.721865ZM27.9520007 75.159586c1.184621-.318499 2.4033669.383498 2.7218659 1.56812.3184989 1.184621-.3834987 2.403366-1.5681198 2.721865-1.184621.318499-2.403367-.383498-2.7218659-1.568119-.3184989-1.184621.3834987-2.402555 1.5681198-2.721866ZM22.903955 56.389273c1.1846211-.318498 2.403367.383499 2.7218659 1.56812.318499 1.184621-.3834987 2.403367-1.5681197 2.721866-1.1846211.318499-2.403367-.383499-2.7218659-1.56812-.3193115-1.184621.3834987-2.403367 1.5681197-2.721866ZM17.8559094 37.618149c1.184621-.318499 2.403367.383498 2.7218659 1.568119.3184989 1.184622-.3834987 2.403367-1.5681197 2.721866-1.1846211.318499-2.403367-.383498-2.721866-1.568119-.3184989-1.184621.3826863-2.402555 1.5681198-2.721866ZM12.8070513 18.847836c1.184621-.318498 2.4033669.383499 2.7218659 1.56812.3184989 1.184621-.3834987 2.403367-1.5681198 2.721866-1.184621.318499-2.4033669-.383499-2.7218659-1.56812-.3184989-1.184621.3834987-2.403367 1.5681198-2.721866ZM7.7590056.076712c1.1846211-.318499 2.403367.383498 2.721866 1.568119.3184989 1.184621-.3834988 2.403367-1.5681198 2.721866-1.184621.318499-2.403367-.383498-2.7218659-1.568119C5.872387 1.613957 6.5743846.395211 7.7590056.076712ZM541.2528908 160.8916553c0 1.0066841-.8157472 1.8224314-1.8224314 1.8224314-1.0066841 0-1.8224314-.8157473-1.8224314-1.8224314s.8157473-1.8224314 1.8224314-1.8224314c1.0066842 0 1.8224314.8165598 1.8224314 1.8224314ZM541.2528908 175.190795c0 1.0066842-.8157472 1.8224314-1.8224314 1.8224314-1.0066841 0-1.8224314-.8157472-1.8224314-1.8224314 0-1.0066841.8157473-1.8224314 1.8224314-1.8224314 1.0066842 0 1.8224314.8157473 1.8224314 1.8224314ZM541.2528908 189.4891222c0 1.0066842-.8157472 1.8224314-1.8224314 1.8224314-1.0066841 0-1.8224314-.8157472-1.8224314-1.8224314 0-1.0066841.8157473-1.8224314 1.8224314-1.8224314 1.0066842.0008125 1.8224314.8165598 1.8224314 1.8224314ZM541.2528908 203.788262c0 1.0066841-.8157472 1.8224314-1.8224314 1.8224314-1.0066841 0-1.8224314-.8157473-1.8224314-1.8224314 0-1.0066842.8157473-1.8224315 1.8224314-1.8224315 1.0066842 0 1.8224314.8157473 1.8224314 1.8224315ZM541.2528908 218.0874017c0 1.0066841-.8157472 1.8224314-1.8224314 1.8224314-1.0066841 0-1.8224314-.8157473-1.8224314-1.8224314 0-1.0066842.8157473-1.8224314 1.8224314-1.8224314 1.0066842 0 1.8224314.8157472 1.8224314 1.8224314ZM541.2528908 232.3857289c0 1.0066841-.8157472 1.8224314-1.8224314 1.8224314-1.0066841 0-1.8224314-.8157473-1.8224314-1.8224314 0-1.0066842.8157473-1.8224314 1.8224314-1.8224314 1.0066842 0 1.8224314.8165597 1.8224314 1.8224314ZM557.7945231 160.8916553c0 1.0066841-.8157473 1.8224314-1.8224314 1.8224314-1.0066842 0-1.8224315-.8157473-1.8224315-1.8224314s.8157473-1.8224314 1.8224315-1.8224314c1.0066841 0 1.8224314.8165598 1.8224314 1.8224314ZM557.7945231 175.190795c0 1.0066842-.8157473 1.8224314-1.8224314 1.8224314-1.0066842 0-1.8224315-.8157472-1.8224315-1.8224314 0-1.0066841.8157473-1.8224314 1.8224315-1.8224314 1.0066841 0 1.8224314.8157473 1.8224314 1.8224314ZM557.7945231 189.4891222c0 1.0066842-.8157473 1.8224314-1.8224314 1.8224314-1.0066842 0-1.8224315-.8157472-1.8224315-1.8224314 0-1.0066841.8157473-1.8224314 1.8224315-1.8224314 1.0066841.0008125 1.8224314.8165598 1.8224314 1.8224314ZM557.7945231 203.788262c0 1.0066841-.8157473 1.8224314-1.8224314 1.8224314-1.0066842 0-1.8224315-.8157473-1.8224315-1.8224314 0-1.0066842.8157473-1.8224315 1.8224315-1.8224315 1.0066841 0 1.8224314.8157473 1.8224314 1.8224315ZM557.7945231 218.0874017c0 1.0066841-.8157473 1.8224314-1.8224314 1.8224314-1.0066842 0-1.8224315-.8157473-1.8224315-1.8224314 0-1.0066842.8157473-1.8224314 1.8224315-1.8224314 1.0066841 0 1.8224314.8157472 1.8224314 1.8224314ZM557.7945231 232.3857289c0 1.0066841-.8157473 1.8224314-1.8224314 1.8224314-1.0066842 0-1.8224315-.8157473-1.8224315-1.8224314 0-1.0066842.8157473-1.8224314 1.8224315-1.8224314 1.0066841 0 1.8224314.8165597 1.8224314 1.8224314ZM574.3369678 160.8916553c0 1.0066841-.8157473 1.8224314-1.8224314 1.8224314-1.0066842 0-1.8224314-.8157473-1.8224314-1.8224314s.8157472-1.8224314 1.8224314-1.8224314c1.0058716 0 1.8224314.8165598 1.8224314 1.8224314ZM574.3369678 175.190795c0 1.0066842-.8157473 1.8224314-1.8224314 1.8224314-1.0066842 0-1.8224314-.8157472-1.8224314-1.8224314 0-1.0066841.8157472-1.8224314 1.8224314-1.8224314 1.0058716 0 1.8224314.8157473 1.8224314 1.8224314ZM574.3369678 189.4891222c0 1.0066842-.8157473 1.8224314-1.8224314 1.8224314-1.0066842 0-1.8224314-.8157472-1.8224314-1.8224314 0-1.0066841.8157472-1.8224314 1.8224314-1.8224314 1.0058716.0008125 1.8224314.8165598 1.8224314 1.8224314ZM574.3369678 203.788262c0 1.0066841-.8157473 1.8224314-1.8224314 1.8224314-1.0066842 0-1.8224314-.8157473-1.8224314-1.8224314 0-1.0066842.8157472-1.8224315 1.8224314-1.8224315 1.0058716 0 1.8224314.8157473 1.8224314 1.8224315ZM574.3369678 218.0874017c0 1.0066841-.8157473 1.8224314-1.8224314 1.8224314-1.0066842 0-1.8224314-.8157473-1.8224314-1.8224314 0-1.0066842.8157472-1.8224314 1.8224314-1.8224314 1.0058716 0 1.8224314.8157472 1.8224314 1.8224314ZM574.3369678 232.3857289c0 1.0066841-.8157473 1.8224314-1.8224314 1.8224314-1.0066842 0-1.8224314-.8157473-1.8224314-1.8224314 0-1.0066842.8157472-1.8224314 1.8224314-1.8224314 1.0058716 0 1.8224314.8165597 1.8224314 1.8224314Z"/></g><g fill="#512030" fill-rule="nonzero" mask="url(#c)" opacity=".34126936"><path d="M62.483535 238.84336c.93386-.93386 2.4476-.93386 3.38146 0 .933861.933861.933861 2.4476 0 3.381461-.93386.933861-2.4476.933861-3.38146 0-.933861-.933861-.933861-2.4476 0-3.381461Z"/></g><g fill="#000" fill-rule="nonzero" mask="url(#c)"><g transform="translate(100.6224 77.5)"><path d="M44.5648424 70.8835594c-1.7523345 0-3.2862083-1.4744972-3.54534-3.521744-.2858583-2.2483752 1.0737117-4.3342493 3.0340488-4.6619153l46.7064555-7.7827347c3.2873703-.3449818 5.953057-3.0635444 6.635166-6.7651052l5.2511933-28.4962905c.203355-1.1082039-.213812-1.9087213-.481078-2.2856705-.267266-.3782811-.863385-1.0123016-1.852269-1.0123016l-72.6347321.5940612h-.0267266c-1.9696333 0-3.5732286-1.8221429-3.5872637-4.0825058-.0138535-2.2710188 1.5804456-4.12512913 3.5616992-4.14244481l72.6602962-.59272924c2.921333 0 5.62769 1.47849315 7.45207 4.05719835 1.823218 2.5773732 2.526244 5.9193005 1.927801 9.1653255l-5.250032 28.4962905c-1.328195 7.215313-6.506181 12.5245686-12.8996456 13.2451675l-46.4287315 7.7427754c-.1766279.0279715-.3509317.0426232-.5229115.0426232Z"/><path d="M44.5694905 70.8835594c-1.4699623 0-2.8481246-1.0484703-3.3756842-2.734325L23.7982836 12.5294217c-.7971496-2.54685907-2.9120361-4.25949456-5.2616518-4.25949456H3.58833494C1.60708136 8.26992714 0 6.41937026 0 4.13496357S1.60708136 0 3.58833494 0H18.5366318c5.365072 0 10.1921262 3.90732633 12.0130203 9.72412741L47.9451748 65.3452792c.6716508 2.1478244-.2951545 4.5165907-2.1590435 5.2905574-.4020609.1687193-.8122559.2477228-1.2166408.2477228Z"/><circle cx="57.9734554" cy="77.8138799" r="5.18612009"/><path d="M92.5251236 74.3278032c0 2.864393-2.3217271 5.1861201-5.1861201 5.1861201-2.8643931 0-5.1872822-2.3217271-5.1872822-5.1861201s2.3217271-5.1861201 5.1872822-5.1861201c2.865555 0 5.1861201 2.3217271 5.1861201 5.1861201ZM22.3573719 50.3308133c-5.5963152 0-8.9197083-1.6279978-10.3350554-4.909558-4.39710475-10.1886402 9.5809008-18.1915102 14.1743878-20.8211741 1.7197979-.9853977 3.9113781-.3892786 4.8967758 1.3316813.9842356 1.7197978.3881165 3.911378-1.3305193 4.8967757-4.8375124 2.7691069-12.6997774 7.9621992-11.1728758 11.7027595 5.5678981 3.6539894 64.7997493-8.4779145 73.4129503-15.7665318 1.3191416-1.1162771 3.9168327-.1710397 4.6698252 1.6626367.7529926 1.8325143-.6676793 3.5477861-1.955689 4.681801-10.291514 9.0610577-67.9638569 17.2216097-72.3597996 17.2216097Z"/></g><path d="M279.8542211 160.5c-7.4457401 0-13.9576832-1.6749102-19.5358294-5.0247307-5.5781462-3.3498205-9.90898135-8.0434405-12.99250549-14.08086-3.08352414-6.0374194-4.62528621-13.0887006-4.62528621-21.1538437 0-8.0768741 1.58956637-15.2155522 4.76869912-21.4160341 3.17913274-6.200482 7.73667178-11.0606838 13.67261698-14.58060553 5.9359453-3.5199217 13.0021837-5.27988255 21.1987153-5.27988255 9.2910448 0 16.9975089 2.22011392 23.1193924 6.66034176 6.1218834 4.44022782 10.0767363 10.60551642 11.8645586 18.49586582h-16.9755131c-1.1426108-3.497046-3.2369085-6.2274635-6.2828931-8.1912525-3.0459845-1.963789-6.9808945-2.9456835-11.8047299-2.9456835-5.1206326 0-9.4819687 1.108004-13.0840082 3.324012-3.6020395 2.216008-6.3330436 5.3634668-8.1930122 9.4423762-1.8599686 4.0789094-2.7899529 8.931486-2.7899529 14.5577298 0 5.6696489.9355566 10.5075616 2.8066697 14.5137381 1.8711132 4.0061765 4.549034 7.043656 8.0337623 9.1124386 3.4847284 2.0687825 7.599711 3.1031737 12.3449479 3.1031737 6.9131473 0 12.1463987-1.8725796 15.6997541-5.6177387 3.5533553-3.7451592 5.6743413-8.561076 6.3629579-14.4477506h-19.3827383v-11.3938475h34.6795285v43.5711287h-14.0192716l-1.1842562-9.9808345c-1.6576069 2.4177833-3.5853227 4.4765943-5.7831475 6.1764332-2.1978248 1.6998389-4.7613672 2.9841029-7.6906271 3.8527922-2.92926.8686892-6.3318705 1.3030338-10.2078316 1.3030338ZM351.733958 160.5c-4.694794 0-8.583072-.769268-11.6648368-2.307804-3.0817644-1.538536-5.3705054-3.6123043-6.8662228-6.2213047-1.4957175-2.6090005-2.2435762-5.4713931-2.2435762-8.5871778 0-3.4630257.8859926-6.5057843 2.6579779-9.1282755 1.7719852-2.6224912 4.4543052-4.6798359 8.0469598-6.172034 3.5926551-1.4921981 8.0930041-2.2382971 13.5010491-2.2382971h13.968242c0-2.8107757-.360439-5.1244453-1.081316-6.9410088s-1.873753-3.1803058-3.458627-4.0912271c-1.584874-.9109212-3.683571-1.3663819-6.29609-1.3663819-2.844796 0-5.264632.6229224-7.259509 1.868767-1.994876 1.2458446-3.22635 3.1263427-3.694422 5.6414942h-14.76889c.4129354-4.0577934 1.7573214-7.563931 4.0331581-10.5184129 2.2758367-2.9544818 5.3007053-5.2505547 9.0746059-6.8882187 3.7739-1.6376639 8.001208-2.4564959 12.681924-2.4564959 5.36112 0 9.984354.8912716 13.8697 2.6738149 3.885346 1.7825432 6.873848 4.3707209 8.965506 7.7645331s3.137487 7.5384159 3.137487 12.4338111v35.1827934h-12.803341l-1.685761-8.6646031c-.785985 1.4640434-1.754682 2.8031504-2.906091 4.017321-1.15141 1.2141707-2.4738 2.2723174-3.967171 3.1744403-1.493371.902123-3.172681 1.5983648-5.037928 2.0887255-1.865248.4903607-3.932857.735541-6.202828.735541Zm3.617876-11.7580987c1.950885 0 3.694422-.3510537 5.230612-1.0531611 1.53619-.7021073 2.861513-1.6740304 3.975969-2.9157691 1.114456-1.2417388 2.001622-2.6741082 2.661497-4.2971082.659875-1.6230001 1.099499-3.3489407 1.318871-5.1778219v-.1513314h-11.641961c-2.288741 0-4.166599.293278-5.633576.8798338-1.466976.5865559-2.542719 1.3998156-3.22723 2.4397791-.684511 1.0399635-1.026766 2.2426963-1.026766 3.6081984 0 1.4370618.344895 2.6532854 1.034685 3.6486707.689789.9953853 1.661712 1.7473499 2.915769 2.2558938 1.254056.5085439 2.7181.7628159 4.39213.7628159ZM398.955897 159.1485753v-56.7035278h15.203528v56.7035278h-15.203528Zm7.635198-64.5199712c-2.756813 0-5.007721-.8173655-6.752724-2.4520967-1.745004-1.6347312-2.617506-3.6768254-2.617506-6.12628267 0-2.49286239.872502-4.54111545 2.617506-6.14475916C401.583374 78.30182186 403.834282 77.5 406.591095 77.5c2.769717 0 5.034995.80182186 6.795836 2.40546557s2.641261 3.65189677 2.641261 6.14475916c0 2.44945727-.88042 4.49155147-2.641261 6.12628267s-4.026119 2.4520967-6.795836 2.4520967ZM448.531614 160.5c-4.694793 0-8.583072-.769268-11.664837-2.307804-3.081764-1.538536-5.370505-3.6123043-6.866223-6.2213047-1.495717-2.6090005-2.243576-5.4713931-2.243576-8.5871778 0-3.4630257.885993-6.5057843 2.657978-9.1282755 1.771985-2.6224912 4.454305-4.6798359 8.04696-6.172034 3.592655-1.4921981 8.093004-2.2382971 13.501049-2.2382971h13.968242c0-2.8107757-.360439-5.1244453-1.081316-6.9410088s-1.873753-3.1803058-3.458627-4.0912271c-1.584874-.9109212-3.683571-1.3663819-6.29609-1.3663819-2.844796 0-5.264632.6229224-7.259509 1.868767-1.994876 1.2458446-3.22635 3.1263427-3.694422 5.6414942h-14.76889c.412935-4.0577934 1.757321-7.563931 4.033158-10.5184129 2.275837-2.9544818 5.300705-5.2505547 9.074606-6.8882187 3.7739-1.6376639 8.001208-2.4564959 12.681924-2.4564959 5.361121 0 9.984354.8912716 13.8697 2.6738149 3.885346 1.7825432 6.873848 4.3707209 8.965506 7.7645331s3.137487 7.5384159 3.137487 12.4338111v35.1827934h-12.803341l-1.685761-8.6646031c-.785985 1.4640434-1.754682 2.8031504-2.906091 4.017321-1.15141 1.2141707-2.4738 2.2723174-3.967171 3.1744403-1.493371.902123-3.172681 1.5983648-5.037928 2.0887255-1.865248.4903607-3.932857.735541-6.202828.735541Zm3.617876-11.7580987c1.950885 0 3.694422-.3510537 5.230612-1.0531611 1.53619-.7021073 2.861513-1.6740304 3.975969-2.9157691 1.114456-1.2417388 2.001622-2.6741082 2.661497-4.2971082.659875-1.6230001 1.099499-3.3489407 1.318871-5.1778219v-.1513314h-11.641961c-2.288741 0-4.166599.293278-5.633575.8798338-1.466977.5865559-2.54272 1.3998156-3.227231 2.4397791-.68451 1.0399635-1.026766 2.2426963-1.026766 3.6081984 0 1.4370618.344895 2.6532854 1.034685 3.6486707.689789.9953853 1.661712 1.7473499 2.915769 2.2558938 1.254056.5085439 2.7181.7628159 4.39213.7628159Z"/></g></g></svg>
