<svg xmlns="http://www.w3.org/2000/svg" width="256" height="73" viewBox="0 0 256 73"><title>gaia_logo_raw</title><g fill="none" fill-rule="evenodd"><path fill="#7DD385" d="m27.16750205 42.94498449 63.82674741-23.58261142c1.90882875 5.90004762 1.90882879 10.77580253 3e-8 14.62726486-2.28044942 4.60128472-.91335489 11.6365804-4.75819316 14.49522637-13.00840048 9.67177555-47.25750314 16.28915804-50.97880956 15.395686-2.48087087-.595648-5.17745246-7.57416999-8.08974472-20.93556581Z"/><path fill="#B2EEC0" d="M60.81845832 36.52233986c17.42655935-4.6694325 26.88892152-11.68590267 28.38708662-21.04941042-1.72323263-3.24110308-12.58436121-5.2736436-32.58338558-6.09762137C26.62362277 8.1393413 5.32297747 18.7318478 8.22802996 29.5736513c2.90505249 10.84180348 26.45058924 13.95283735 52.59042836 6.94868857Z"/><g fill="#063611" fill-rule="nonzero" transform="translate(0 .9527)"><path d="M38.351 61c-1.508 0-2.828-1.2689026-3.051-3.0306941-.246-1.9348758.924-3.7299087 2.611-4.0118871l40.194-6.6975589c2.829-.2968796 5.123-2.6363829 5.71-5.8218213l4.519-24.5229463c.175-.9536828-.184-1.6425812-.414-1.9669709-.23-.325536-.743-.8711526-1.594-.8711526l-62.507.511229h-.023c-1.695 0-3.075-1.5680747-3.0870781-3.5132668C20.697 9.12056888 22.069 7.52498408 23.774 7.51008278L86.303 7c2.514 0 4.843 1.27234133 6.413 3.491488 1.569 2.2180004 2.174 5.0939503 1.659 7.88737l-4.518 24.5229463c-1.143 6.2092549-5.599 10.7782212-11.101 11.3983443l-39.955 6.6631713C38.649 60.9873912 38.499 61 38.351 61Z"/><path d="M38.355 61c-1.265 0-2.451-.9022782-2.905-2.3530679L20.48 10.7823976c-.686-2.19174096-2.506-3.66557729-4.528-3.66557729H3.088c-1.705 0-3.088-1.59252682-3.088-3.55841015C0 1.59252682 1.383 0 3.088 0h12.864c4.617 0 8.771 3.36251322 10.338 8.36825601L41.26 56.2339429c.578 1.8483451-.254 3.8868256-1.858 4.5528751-.346.1451942-.699.213182-1.047.213182Z"/><circle cx="49.89" cy="66.964" r="4.463"/><path d="M79.624 63.964c0 2.465-1.998 4.463-4.463 4.463s-4.464-1.998-4.464-4.463 1.998-4.463 4.464-4.463 4.463 1.998 4.463 4.463ZM19.24 43.313c-4.816 0-7.676-1.401-8.894-4.225-3.784-8.768 8.245-15.655 12.198-17.918 1.48-.848 3.366-.335 4.214 1.146.847 1.48.334 3.366-1.145 4.214-4.163 2.383-10.929 6.852-9.615 10.071 4.7915453 3.1445 55.7644783-7.2958072 63.1767085-13.5681454 1.1352088-.9606304 3.370694-.1471909 4.018694 1.4308091.648 1.577-.5745823 3.053105-1.683 4.029C72.6538727 36.2903043 23.023 43.313 19.24 43.313Z"/></g><g fill="#063611" fill-rule="nonzero"><path d="M136.1585188 58.0468c-4.4296771 0-8.3038125-.9964505-11.6224063-2.9893516-3.31859375-1.992901-5.8951276-4.7852656-7.72960156-8.3770937C114.97203698 43.0885266 114.0548 38.893524 114.0548 34.0953469c0-4.8051563.94567708-9.0521537 2.83703125-12.7409922 1.89135417-3.68883855 4.60276042-6.5803073 8.13421875-8.67440626C128.5575083 10.58584948 132.7614094 9.5388 137.6377531 9.5388c5.5275 0 10.1122891 1.32080729 13.7543672 3.96242187 3.6420781 2.64161459 5.9949297 6.30951563 7.0585547 11.00370313h-10.0992031c-.6797709-2.0804896-1.9257266-3.7048906-3.7378672-4.8732031-1.8121406-1.16831253-4.1531276-1.75246878-7.022961-1.75246878-3.0464062 0-5.6410859.6591823-7.784039 1.97754688-2.1429531 1.3183646-3.7677031 3.190875-4.87425 5.6175312-1.10654689 2.4266563-1.65982033 5.3135886-1.65982033 8.6607969 0 3.3730313.55658855 6.2512396 1.66976563 8.634625 1.1131771 2.3833854 2.7063464 4.1904662 4.7795078 5.4212422 2.0731615 1.2307761 4.5212787 1.8461641 7.3443516 1.8461641 4.1128229 0 7.2262291-1.1140495 9.3402187-3.3421485 2.1139896-2.2280989 3.3758229-5.0932213 3.7855-8.5953672H138.66055v-6.7785156h20.6318125V57.2428h-8.3404531l-.7045469-5.937875c-.9861562 1.4384062-2.1330078 2.66325-3.4405547 3.6745312-1.3075469 1.0112813-2.8326693 1.7753256-4.5753672 2.2921329-1.7426979.5168073-3.7670052.7752109-6.0729218.7752109ZM178.9217658 58.0468c-2.7930625 0-5.1063073-.4576589-6.9397344-1.3729766-1.833427-.9153177-3.1950625-2.1490599-4.0849062-3.7012265-.8898438-1.5521667-1.3347656-3.2550834-1.3347656-5.10875 0-2.06025.5271015-3.8704714 1.5813047-5.4306641 1.0542031-1.5601927 2.6499895-2.7841641 4.7873593-3.6719141s4.8147526-1.331625 8.0321485-1.331625h8.3100937c0-1.6722083-.2144349-3.0486744-.6433047-4.1293984-.4288698-1.0807239-1.1147474-1.8920521-2.0576328-2.4339844s-2.1914583-.8128984-3.7457187-.8128984c-1.692448 0-3.1320756.3705937-4.3188828 1.1117812-1.1868073.7411875-1.9194454 1.859948-2.1979141 3.3562813h-8.7864219c.2456667-2.4140938 1.0454792-4.4999922 2.3994375-6.2576953 1.3539583-1.7577031 3.1535365-3.1237005 5.3987344-4.0979922 2.2451979-.9742917 4.7601406-1.4614375 7.5448281-1.4614375 3.1894792 0 5.9399688.5302422 8.2514688 1.5907266 2.3115 1.0604843 4.0894427 2.600263 5.3338281 4.6193359 1.2443854 2.0190729 1.8665781 4.4848125 1.8665781 7.3972187V57.2428h-7.6170625l-1.0029062-5.1548125c-.4676042.871-1.0439089 1.6676719-1.7289141 2.3900156-.6850052.7223438-1.4717318 1.3518646-2.3601797 1.8885625-.8884479.5366979-1.8875156.9509115-2.9972031 1.2426406-1.1096875.2917292-2.3397656.4375938-3.6902344.4375938Zm2.152375-6.9952188c1.1606354 0 2.1979141-.2088515 3.111836-.6265546.9139218-.4177032 1.7023932-.9959271 2.365414-1.7346719s1.1908203-1.5909011 1.5833985-2.5564688c.3925781-.9655677.6541223-1.9923776.7846328-3.0804297v-.0900312h-6.926125c-1.3616355 0-2.4788256.1744792-3.3515703.5234375-.8727448.3489583-1.5127344.8327891-1.9199688 1.4514922-.4072344.6187031-.6108516 1.3342422-.6108516 2.1466172 0 .8549479.2051875 1.578513.6155625 2.1706953.410375.5921823.988599 1.0395469 1.7346719 1.3420937.7460729.3025469 1.6170729.4538203 2.613.4538203ZM207.0154063 57.2428V23.5083h9.0449997v33.7345h-9.0449997Zm4.5423907-38.3847188c-1.6401042 0-2.9792318-.48627339-4.0173828-1.45882026-1.0381511-.97254688-1.5572266-2.18744532-1.5572266-3.64469532 0-1.48307291.5190755-2.70163541 1.5572266-3.6556875C208.5785652 9.14482604 209.9176928 8.6678 211.557797 8.6678c1.6477812 0 2.995458.47702604 4.043031 1.43107812 1.047573.95405209 1.57136 2.17261459 1.57136 3.6556875 0 1.45725-.523787 2.67214844-1.57136 3.64469532-1.047573.97254687-2.3952498 1.45882026-4.043031 1.45882026ZM236.509374 58.0468c-2.793063 0-5.106308-.4576589-6.939735-1.3729766-1.833427-.9153177-3.195062-2.1490599-4.084906-3.7012265-.889844-1.5521667-1.334766-3.2550834-1.334766-5.10875 0-2.06025.527102-3.8704714 1.581305-5.4306641 1.054203-1.5601927 2.64999-2.7841641 4.78736-3.6719141 2.137369-.88775 4.814752-1.331625 8.032148-1.331625h8.310094c0-1.6722083-.214435-3.0486744-.643305-4.1293984-.42887-1.0807239-1.114747-1.8920521-2.057633-2.4339844-.942885-.5419323-2.191458-.8128984-3.745719-.8128984-1.692447 0-3.132075.3705937-4.318882 1.1117812-1.186808.7411875-1.919446 1.859948-2.197914 3.3562813h-8.786422c.245666-2.4140938 1.045479-4.4999922 2.399437-6.2576953 1.353959-1.7577031 3.153537-3.1237005 5.398735-4.0979922 2.245198-.9742917 4.76014-1.4614375 7.544828-1.4614375 3.189479 0 5.939968.5302422 8.251468 1.5907266 2.3115 1.0604843 4.089443 2.600263 5.333829 4.6193359 1.244385 2.0190729 1.866578 4.4848125 1.866578 7.3972187V57.2428h-7.617063l-1.002906-5.1548125c-.467604.871-1.043909 1.6676719-1.728914 2.3900156-.685005.7223438-1.471732 1.3518646-2.36018 1.8885625-.888448.5366979-1.887515.9509115-2.997203 1.2426406-1.109687.2917292-2.339766.4375938-3.690234.4375938Zm2.152375-6.9952188c1.160635 0 2.197914-.2088515 3.111836-.6265546.913922-.4177032 1.702393-.9959271 2.365414-1.7346719.663021-.7387448 1.19082-1.5909011 1.583398-2.5564688.392578-.9655677.654123-1.9923776.784633-3.0804297v-.0900312h-6.926125c-1.361635 0-2.478826.1744792-3.35157.5234375-.872745.3489583-1.512735.8327891-1.919969 1.4514922-.407234.6187031-.610852 1.3342422-.610852 2.1466172 0 .8549479.205188 1.578513.615563 2.1706953.410375.5921823.988599 1.0395469 1.734672 1.3420937.746073.3025469 1.617073.4538203 2.613.4538203Z"/></g></g></svg>
